<?xml version="1.0" encoding="utf-8"?>
<!-- Generator: Adobe Illustrator 20.1.0, SVG Export Plug-In . SVG Version: 6.00 Build 0)  -->
<svg version="1.1" id="Layer_1" xmlns="http://www.w3.org/2000/svg" xmlns:xlink="http://www.w3.org/1999/xlink" x="0px" y="0px"
	 viewBox="0 0 630.8 469.7" style="enable-background:new 0 0 630.8 469.7;" xml:space="preserve">
<style type="text/css">
	.st0{fill:#C9D6E2;}
	.st1{fill:#809DAA;}
	.st2{fill:#FFFFFF;}
	.st3{fill:none;}
	.st4{font-family:'HelveticaNeue-CondensedBold';}
	.st5{font-size:74px;}
</style>
<path class="st0" d="M506.2,234c0-105-84.8-190.2-189.6-190.9c-4.5,61.9-1.3,125.9-2.7,189.9c31.3,57.2,78.5,100.7,126.7,145
	C480.8,343,506.2,291.5,506.2,234z"/>
<path class="st1" d="M313.9,233c9.5-63,7.8-126.7,2.7-189.9c-0.4,0-0.9,0-1.3,0c-105.4,0-190.9,85.5-190.9,190.9
	s85.5,190.9,190.9,190.9c48,0,91.8-17.7,125.3-46.9C392.4,333.7,345.2,290.2,313.9,233z"/>
<circle class="st2" cx="315.2" cy="234" r="116.3"/>
<rect x="251.5" y="205.6" class="st3" width="182.5" height="120.5"/>
<text transform="matrix(1 0 0 1 251.5016 258.3985)" class="st1 st4 st5">43%</text>
</svg>
